PathFileType	4	(X/Y/Z)	C:/Users/beibeiliu/ov580/test_trc/User2\sequence.2_training_dense_right.trc
DataRate	CameraRate	NumFrames	NumMarkers	Units	OrigDataRate	OrigDataStartFrame	OrigNumFrames
120	120	24	19	mm	120	1	78
Frame#	Time	ThumbCMC			ThumbMCP			ThumbIP			ThumbTip			IndexMCP			IndexPIP			IndexTip			MiddleMCP			MiddlePIP			MiddleTip			RingMCP			RingPIP			RingTip			PinkyMCP			PinkyPIP			PinkyTip			BackHand1			BackHand2			BackHand3	
		X0	Y0	Z0	X1	Y1	Z1	X2	Y2	Z2	X3	Y3	Z3	X4	Y4	Z4	X5	Y5	Z5	X6	Y6	Z6	X7	Y7	Z7	X8	Y8	Z8	X9	Y9	Z9	X10	Y10	Z10	X11	Y11	Z11	X12	Y12	Z12	X13	Y13	Z13	X14	Y14	Z14	X15	Y15	Z15	X16	Y16	Z16	X17	Y17	Z17	X18	Y18	Z18	
0	0	89.8767	-16.3219	-3.97728	60.5216	-22.5915	-21.118	38.0139	-29.1715	-46.7306	23.1899	-36.3741	-64.18	93.0422	0.760904	-87.3422	83.2668	-2.93439	-117.261	74.0222	-6.0987	-139.794	124.655	2.90202	-97.1636	118.607	0.0922052	-128.57	119.921	-5.86816	-161.25	149.07	-6.46835	-93.981	151.83	-8.58315	-121.572	155.494	-10.9868	-150.965	171.311	-19.4661	-78.3134	182.643	-22.399	-101.719	193.134	-21.7866	-121.244	150.237	0.148567	-37.1909	152.541	5.98366	-2.94143	117.062	7.48625	-17.2679	
1	0.00833333	86.632	-15.3603	-8.57871	64.334	-23.1693	-20.9992	38.7429	-28.4987	-48.2147	20.227	-36.4337	-60.8232	92.3777	1.02285	-87.2071	80.2927	-0.294792	-115.897	75.8436	-5.09809	-143.762	120.585	3.71696	-95.7606	117.016	0.844398	-132.444	118.643	-4.36664	-163.126	146.193	-4.72156	-96.3249	155.291	-8.1122	-118.491	153.278	-9.23021	-150.602	169.923	-18.9477	-77.9696	182.545	-21.1974	-103.218	189.202	-20.7615	-126.625	149.405	0.140077	-37.0695	152.224	5.05787	-3.37213	115.738	9.02323	-20.2088	
2	0.0166667	86.507	-14.984	-3.24566	64.3739	-22.4066	-23.5468	37.4862	-27.4763	-46.6495	22.7149	-34.5683	-62.9671	93.0403	2.6827	-87.5651	80.7924	1.43171	-111.987	77.4277	-2.66632	-140.71	120.574	5.37864	-100.712	117.25	2.61207	-131.857	119.285	-3.41452	-164.45	149.172	-4.02539	-94.8462	151.147	-6.36008	-118.605	153.646	-8.58944	-149.396	170.598	-16.5546	-79.3199	181.78	-21.4575	-101.149	188.701	-19.9887	-122.909	150.627	1.14524	-38.1586	155.507	6.27245	-6.23484	118.368	10.036	-18.7425	
3	0.025	85.4858	-13.7864	-6.18709	62.8258	-21.4103	-20.4902	38.0437	-26.202	-48.0977	20.4599	-33.9264	-63.3725	91.9803	3.98726	-85.33	80.8106	2.37586	-116.365	79.0285	-1.28485	-142.746	125.331	6.37446	-98.9341	121.681	3.33422	-133.35	122.332	-3.19356	-162.824	148.048	-1.78747	-96.5528	152.942	-4.61344	-122.708	152.429	-7.61236	-150.23	170.519	-16.3484	-78.4472	180.032	-20.9097	-99.8391	191.066	-19.2659	-126.353	148.429	3.80817	-37.9878	154.585	4.6431	-3.47325	114.791	10.1252	-21.9623	
4	0.0333333	84.4885	-12.4199	-7.28968	63.7366	-20.8573	-21.8442	38.1889	-25.7961	-46.8263	21.5821	-33.7236	-64.8306	93.1051	5.99428	-89.1422	81.7059	5.10563	-113.212	79.9262	0.0245081	-142.029	121.344	7.90867	-94.9259	119.823	4.21044	-132.961	119.616	-1.14439	-161.092	147.498	-2.29984	-91.664	150.098	-3.79023	-123.459	152.649	-5.9533	-151.868	171.541	-17.0473	-76.0409	181.508	-19.1472	-104.558	190.442	-20.1067	-127.355	149.497	3.13599	-34.7759	157.717	6.54379	-3.60539	120.657	9.84639	-18.475	
5	0.0416667	84.9744	-12.7026	-8.27812	65.0473	-21.0192	-22.6656	41.0747	-27.5338	-43.7415	24.5311	-34.5978	-63.2514	90.9831	7.16406	-86.6824	85.9997	6.6843	-116.53	74.3663	1.87995	-144.011	124.186	9.51848	-95.1369	123.241	6.89411	-129.858	119.819	-1.0423	-159.652	146.695	0.358561	-95.0654	153.2	-2.01389	-120.458	149.84	-6.61783	-148.542	173.358	-14.8634	-79.5684	178.422	-17.6175	-102.579	190.344	-19.6551	-130.289	153.581	3.04091	-37.6143	154.811	5.99365	-5.88677	120.078	10.6723	-21.8788	
6	0.05	87.2699	-13.7083	-7.15158	61.4028	-21.0289	-19.9148	36.6378	-28.0571	-45.7886	24.4291	-37.6034	-65.8782	93.4927	10.8518	-85.7971	83.0015	10.6851	-115.687	83.2749	1.91416	-143.905	122.042	14.0476	-94.3295	121.693	9.73066	-129.231	120.609	-4.72403	-160.428	150.646	4.29653	-93.4079	153.414	0.928152	-120.772	150.559	-8.46844	-148.882	169.518	-12.2399	-77.2665	180.137	-18.1707	-106.488	182.546	-26.2937	-134.328	150.487	5.7353	-33.0916	152.867	6.02531	-2.03835	117.983	11.0571	-19.3927	
7	0.0583333	88.0151	-14.3726	-2.54201	64.1271	-23.1766	-22.2869	42.9317	-31.5825	-48.9638	35.1349	-39.8664	-75.6351	95.222	18.6171	-82.6891	91.5695	15.7394	-116.738	87.9329	-1.4463	-143.332	126.131	19.7381	-93.1646	123.582	13.1176	-128.906	122.353	-15.0144	-156.36	151.702	9.45852	-91.7423	152.867	3.61998	-121.678	141.749	-14.6253	-144.348	169.14	-8.39016	-75.8428	172.331	-15.1786	-106.13	168.453	-34.3054	-132.003	151.33	9.66151	-34.9803	155.662	7.02382	1.91127	117.84	13.5993	-13.4457	
8	0.0666667	94.7838	-13.525	-9.16012	71.4705	-25.756	-27.6277	57.2867	-34.4538	-56.4591	54.5302	-42.788	-84.9172	104.058	24.3568	-82.1006	99.0953	20.8676	-114.519	98.8917	-4.64577	-132.67	130.957	25.0205	-89.8906	126.305	11.405	-127.709	120.54	-19.1934	-138.3	150.86	13.5776	-87.2309	148.793	3.64105	-118.359	136.01	-30.2926	-130.275	170.795	-5.02849	-79.0579	163.594	-18.0136	-108.955	155.002	-44.2077	-118.909	160.52	11.0556	-32.3605	163.467	6.91474	-0.201272	126.362	14.1781	-11.1451	
9	0.075	98.9397	-12.4504	-7.86335	79.9558	-25.051	-36.4625	69.4227	-31.9851	-67.6176	75.0912	-36.6002	-98.1315	113.095	30.579	-82.8528	104.55	24.5498	-112.351	103.056	-11.8801	-121.568	131.229	30.6671	-93.5812	126.328	9.71749	-125.514	118.788	-24.7344	-122.723	154.091	15.8818	-91.1694	145.906	0.661482	-118.734	132.606	-33.4664	-113.044	173.38	-2.14539	-84.2201	159.294	-18.9743	-109.888	143.085	-45.6294	-106.249	161.628	11.2876	-31.2473	169.424	6.27351	-3.03076	135.125	17.6353	-10.5495	
10	0.0833333	104.948	-9.35622	-15.8948	82.2746	-20.4833	-45.1905	74.2185	-28.1416	-78.5379	88.9116	-30.1062	-106.207	114.157	34.7987	-82.6112	106.672	21.8922	-116.703	108.272	-11.1463	-116.214	135.469	31.6032	-97.1659	129.879	10.7101	-125.729	122.483	-25.8872	-112.031	155.98	17.3927	-100.106	146.147	-2.5395	-121.143	134.232	-33.2124	-104.734	174.115	-0.177252	-90.2785	156.94	-19.3548	-111.043	142.463	-47.4714	-96.2385	166.06	13.9077	-33.1741	172.734	6.92861	-2.35835	137.722	17.1298	-13.5114	
11	0.0916667	106.51	-10.8278	-16.2709	89.9396	-19.1121	-47.0219	80.9614	-24.2857	-86.1408	96.17	-26.1218	-112.41	115.176	36.1282	-89.1633	111.754	20.4506	-119.191	109.187	-14.5839	-111.574	136.547	32.4556	-97.3162	130.821	7.35698	-127.277	122.749	-26.355	-109.121	158.175	18.0962	-103.196	149.588	-5.01498	-122.368	136.889	-32.7702	-99.1478	170.991	1.90843	-95.7	157.812	-24.2102	-112.473	148.387	-47.0501	-92.2977	170.91	17.6025	-41.3908	174.755	7.24457	-7.36825	136.483	20.4477	-19.5924	
12	0.1	106.886	-10.9084	-19.737	91.9422	-21.3835	-50.048	84.8198	-29.3677	-83.3154	98.5444	-31.4045	-110.563	118.175	32.1459	-96.3891	116.099	11.909	-122.041	111.174	-18.8045	-112.693	139.507	26.6527	-106.545	136.713	-4.56388	-127.488	130.531	-33.1843	-105.216	160.756	10.7156	-107.313	153.699	-17.9669	-121.604	139.57	-38.2687	-95.4473	178.106	-4.50427	-98.64	161.348	-30.504	-110.119	150.17	-48.6942	-85.7348	172.903	17.936	-41.9565	176.876	6.54647	-10.4867	140.42	20.1484	-18.8284	
13	0.108333	112.589	-12.7899	-23.9524	93.0038	-28.4105	-50.2481	87.992	-38.8539	-82.4463	99.7003	-47.2012	-106.829	125.551	15.2104	-100	121.126	-8.3854	-124.154	115.436	-39.9325	-103.557	149.164	8.404	-107.907	140.809	-23.1885	-126.889	132.918	-50.2979	-94.6823	166.663	-9.54934	-110.308	152.472	-34.3178	-117.43	144.176	-52.7181	-89.6435	183.98	-21.3647	-95.526	164.204	-51.1122	-101.788	151.61	-58.1329	-77.0877	175.346	9.46136	-43.1689	179.114	4.99358	-13.864	142.161	17.2818	-23.6325	
14	0.116667	110.432	-13.2651	-22.9986	87.2973	-31.9	-43.8074	82.3362	-48.0885	-74.9272	97.4791	-60.6251	-101.663	123.453	-3.34534	-107.073	118.393	-33.9254	-119.195	110.469	-55.4162	-94.8208	143.928	-13.726	-110.323	137.556	-47.6218	-119.967	126.409	-65.5392	-83.5933	165.456	-32.5379	-106.649	148.602	-61.6204	-106.657	137.363	-65.1992	-72.3544	179.381	-42.8494	-90.9757	161.508	-72.1745	-91.2034	146.419	-69.0693	-58.5728	179.601	-2.39563	-48.4827	179.141	0.986064	-14.7797	144.879	11.3678	-32.5675	
15	0.125	108.138	-3.42141	-20.8029	83.7421	-22.3187	-36.5586	69.6007	-42.6036	-61.9534	79.2166	-62.1031	-83.0663	117.833	-14.5461	-104.059	103.692	-45.3299	-109.309	95.1086	-60.8487	-80.9507	136.304	-31.6719	-107.663	117.1	-62.891	-105.778	108.499	-71.8527	-70.9736	149.92	-48.4104	-100.859	136.547	-76.0561	-95.9197	123.713	-73.1016	-59.0732	166.873	-61.3036	-83.5679	143.009	-83.4365	-74.7361	131.779	-72.0071	-45.0332	179.815	-12.2508	-49.2248	184.029	-4.82207	-19.7605	148.429	10.2907	-32.3331	
16	0.133333	112.258	9.89046	-16.7142	77.5049	-0.532429	-28.3924	59.7032	-23.2465	-50.7065	59.5094	-47.0319	-66.3967	106.614	-16.1904	-98.174	84.3058	-40.1195	-98.3877	76.9821	-53.7382	-64.9665	121.518	-34.4073	-98.2255	95.154	-61.0389	-92.5447	88.7866	-67.1648	-54.4166	132.979	-53.3494	-88.2544	107.019	-75.1664	-78.2678	98.428	-65.4747	-43.8186	146.527	-68.8865	-71.1412	114.507	-80.1608	-56.9584	109.63	-63.4612	-29.9516	171.93	-18.9241	-48.0204	182.921	-8.76667	-17.7758	151.311	11.1987	-33.1984	
17	0.141667	113.942	26.9507	-16.3945	79.4712	20.7153	-23.9789	50.4866	7.3985	-35.8506	41.5491	-16.936	-48.661	94.5148	-11.8589	-90.5145	66.8527	-28.6467	-86.9362	55.3768	-34.1902	-55.8397	100.359	-35.6966	-88.2606	68.6939	-51.001	-74.7544	59.9459	-45.2902	-38.9142	105.386	-52.1813	-78.2757	78.0818	-65.2562	-60.746	72.6989	-49.2739	-32.3417	114.831	-67.1804	-60.1505	85.8375	-69.3287	-41.8227	83.3276	-54.0223	-15.4072	160.542	-26.6909	-45.8613	177.559	-14.3413	-16.791	149.603	13.8487	-34.8897	
18	0.15	121.301	39.5523	-13.7381	84.0757	42.3057	-21.9556	51.3075	35.9827	-29.7781	32.9917	12.2503	-40.8677	84.0713	1.09031	-83.8358	53.3807	-9.85476	-80.5863	38.6578	-11.9062	-45.1771	80.5808	-24.4567	-81.3542	50.4102	-32.9872	-67.1572	43.1582	-24.5408	-26.6815	86.9308	-47.4074	-66.0894	55.4233	-47.4212	-54.2534	52.7783	-28.3503	-21.4319	93.5301	-59.3518	-48.136	60.9148	-51.9147	-32.1482	61.3004	-35.9914	-9.23359	143.107	-27.5298	-43.5613	163.843	-19.0553	-16.852	148.142	8.74522	-36.5845	
19	0.158333	125.945	43.0145	-18.0956	93.6054	53.7527	-24.6249	61.7312	54.9713	-30.8928	36.224	38.279	-38.4994	79.713	10.58	-78.8382	44.8645	9.60505	-76.4303	31.1947	17.2191	-46.3438	68.3904	-17.2664	-74.3421	35.6681	-11.3568	-59.9473	32.0591	3.43511	-22.7284	64.8592	-33.8846	-60.4167	38.0395	-23.4475	-47.4276	41.9833	-3.94779	-15.0835	74.3601	-45.5201	-40.2463	43.8645	-34.5829	-27.3824	46.4797	-8.48875	-5.49997	127.848	-28.6282	-40.9516	152.312	-26.5624	-17.3789	144.96	4.96332	-34.7859	
20	0.166667	131.555	40.8463	-22.12	108.523	62.8959	-29.1203	73.479	73.916	-40.9875	49.2202	56.0913	-44.9882	77.971	14.0894	-79.7946	46.4884	26.0851	-79.7826	36.5655	38.6851	-49.016	67.8593	-3.14179	-75.1964	32.71	7.47893	-64.674	33.392	30.2292	-27.1194	56.9966	-18.9763	-59.9231	31.4789	-2.03522	-47.2091	37.0096	13.8362	-18.1377	58.5392	-34.8033	-36.3199	33.9266	-15.8326	-25.9562	41.3021	8.61827	-3.79557	119.689	-32.3831	-32.6521	144.392	-31.3458	-12.1917	139.485	5.38881	-39.5259	
21	0.175	144.185	37.3233	-31.4384	122.279	58.9051	-44.5365	94.0225	75.5762	-60.5716	67.1938	68.264	-63.2008	83.967	14.8093	-89.1365	58.1113	29.761	-91.2043	52.9977	51.2503	-57.188	69.1597	-0.447659	-80.5739	40.5849	24.1739	-72.9658	45.3263	43.6148	-38.8306	55.7877	-13.1412	-62.8611	35.8991	7.43931	-55.9376	44.7598	30.102	-28.2056	54.0514	-22.4279	-40.1051	36.6416	3.86903	-33.7419	50.1109	25.9716	-14.8873	117.984	-28.9992	-33.2349	138.962	-32.1864	-9.79162	143.607	-6.02465	-37.9338	
22	0.183333	158.163	23.9401	-41.051	143.7	45.9464	-58.7915	116.277	59.3022	-83.7967	88.804	57.0479	-88.6033	99.9735	0.589545	-100.279	74.4554	20.5767	-102.856	73.0175	44.0947	-76.9617	82.2371	-12.0414	-85.9456	55.3178	15.434	-87.01	65.643	43.8011	-57.3293	67.923	-18.7696	-68.518	48.0002	8.39595	-71.0381	59.2793	33.7028	-45.6273	63.0735	-19.9776	-49.6393	45.1679	6.69928	-46.7523	65.0418	31.7737	-34.4477	118.473	-36.32	-37.2785	142.482	-35.5353	-7.68243	149.153	-17.0516	-42.9926	
23	0.191667	174.993	9.09681	-48.5682	160.572	26.8896	-73.5515	139.676	37.251	-97.6212	112.354	39.0387	-113.092	119.826	-24.2115	-104.71	95.5591	-1.63263	-119.666	92.7076	24.2219	-96.4859	101.769	-31.0857	-97.6488	74.8231	-3.37381	-104.314	82.0499	27.3786	-81.2544	82.5146	-32.3087	-80.4063	62.983	-4.1769	-85.4418	80.8069	24.0392	-67.4008	74.8072	-33.0191	-59.1692	61.3135	-7.28906	-67.8475	77.4295	20.2238	-52.264	125.897	-47.9694	-38.2647	148.901	-46.7039	-8.11766	163.774	-32.7849	-42.1297	
